<svg width="32" height="31" viewBox="0 0 32 31" fill="none" xmlns="http://www.w3.org/2000/svg">
<path d="M25.2084 24.75C23.4971 24.75 22.125 26.1221 22.125 27.8333C22.125 28.6511 22.4499 29.4353 23.0281 30.0136C23.6063 30.5918 24.3906 30.9167 25.2084 30.9167C26.0261 30.9167 26.8104 30.5918 27.3886 30.0136C27.9668 29.4353 28.2917 28.6511 28.2917 27.8333C28.2917 27.0156 27.9668 26.2313 27.3886 25.6531C26.8104 25.0749 26.0261 24.75 25.2084 24.75ZM0.541687 0.0833359V3.16667H3.62502L9.17502 14.8679L7.07835 18.645C6.8471 19.0767 6.70835 19.5854 6.70835 20.125C6.70835 20.9428 7.0332 21.727 7.61144 22.3052C8.18968 22.8835 8.97394 23.2083 9.79169 23.2083H28.2917V20.125H10.4392C10.337 20.125 10.2389 20.0844 10.1667 20.0121C10.0944 19.9398 10.0538 19.8418 10.0538 19.7396C10.0538 19.6625 10.0692 19.6008 10.1 19.5546L11.4875 17.0417H22.9729C24.1292 17.0417 25.1467 16.3942 25.6709 15.4538L31.19 5.47917C31.2979 5.2325 31.375 4.97042 31.375 4.70834C31.375 4.29946 31.2126 3.90733 30.9235 3.61821C30.6344 3.32909 30.2422 3.16667 29.8334 3.16667H7.0321L5.58294 0.0833359M9.79169 24.75C8.08044 24.75 6.70835 26.1221 6.70835 27.8333C6.70835 28.6511 7.0332 29.4353 7.61144 30.0136C8.18968 30.5918 8.97394 30.9167 9.79169 30.9167C10.6094 30.9167 11.3937 30.5918 11.9719 30.0136C12.5502 29.4353 12.875 28.6511 12.875 27.8333C12.875 27.0156 12.5502 26.2313 11.9719 25.6531C11.3937 25.0749 10.6094 24.75 9.79169 24.75Z" fill="#D81650"/>
</svg>
