<svg width="25" height="25" viewBox="0 0 25 25" fill="none" xmlns="http://www.w3.org/2000/svg">
<path d="M3.125 5.46875C3.125 4.84715 3.37193 4.25101 3.81147 3.81147C4.25101 3.37193 4.84715 3.125 5.46875 3.125H17.1875C18.0163 3.125 18.8112 3.45424 19.3972 4.04029C19.9833 4.62634 20.3125 5.4212 20.3125 6.25V6.66875C20.7875 6.94302 21.182 7.3375 21.4563 7.81254C21.7306 8.28759 21.875 8.82646 21.875 9.375V18.75C21.875 19.5788 21.5458 20.3737 20.9597 20.9597C20.3737 21.5458 19.5788 21.875 18.75 21.875H7.03125C5.99525 21.875 5.00168 21.4634 4.26911 20.7309C3.53655 19.9983 3.125 19.0048 3.125 17.9688V5.46875ZM4.6875 5.46875C4.6875 5.67595 4.76981 5.87466 4.91632 6.02118C5.06284 6.16769 5.26155 6.25 5.46875 6.25H18.75C18.75 5.8356 18.5854 5.43817 18.2924 5.14515C17.9993 4.85212 17.6019 4.6875 17.1875 4.6875H5.46875C5.26155 4.6875 5.06284 4.76981 4.91632 4.91632C4.76981 5.06284 4.6875 5.26155 4.6875 5.46875ZM16.4062 12.5C16.199 12.5 16.0003 12.5823 15.8538 12.7288C15.7073 12.8753 15.625 13.074 15.625 13.2812C15.625 13.4885 15.7073 13.6872 15.8538 13.8337C16.0003 13.9802 16.199 14.0625 16.4062 14.0625H17.9688C18.176 14.0625 18.3747 13.9802 18.5212 13.8337C18.6677 13.6872 18.75 13.4885 18.75 13.2812C18.75 13.074 18.6677 12.8753 18.5212 12.7288C18.3747 12.5823 18.176 12.5 17.9688 12.5H16.4062Z" fill="#D81650"/>
</svg>
