<svg width="25" height="25" viewBox="0 0 25 25" fill="none" xmlns="http://www.w3.org/2000/svg">
<path fill-rule="evenodd" clip-rule="evenodd" d="M10.4167 4.16666H14.5834C18.5115 4.16666 20.4761 4.16666 21.6959 5.38749C22.575 6.26561 22.8209 7.5302 22.8896 9.63541H2.11046C2.17921 7.5302 2.42504 6.26561 3.30421 5.38749C4.524 4.16666 6.48858 4.16666 10.4167 4.16666ZM14.5834 20.8333H10.4167C6.48858 20.8333 4.524 20.8333 3.30421 19.6125C2.08337 18.3927 2.08337 16.4281 2.08337 12.5C2.08337 12.0396 2.08337 11.6062 2.08546 11.1979H22.9146C22.9167 11.6062 22.9167 12.0396 22.9167 12.5C22.9167 16.4281 22.9167 18.3927 21.6959 19.6125C20.4761 20.8333 18.5115 20.8333 14.5834 20.8333ZM6.25004 15.8854C6.04284 15.8854 5.84413 15.9677 5.69761 16.1142C5.5511 16.2607 5.46879 16.4595 5.46879 16.6667C5.46879 16.8739 5.5511 17.0726 5.69761 17.2191C5.84413 17.3656 6.04284 17.4479 6.25004 17.4479H10.4167C10.6239 17.4479 10.8226 17.3656 10.9691 17.2191C11.1156 17.0726 11.198 16.8739 11.198 16.6667C11.198 16.4595 11.1156 16.2607 10.9691 16.1142C10.8226 15.9677 10.6239 15.8854 10.4167 15.8854H6.25004ZM13.0209 15.8854C12.8137 15.8854 12.615 15.9677 12.4684 16.1142C12.3219 16.2607 12.2396 16.4595 12.2396 16.6667C12.2396 16.8739 12.3219 17.0726 12.4684 17.2191C12.615 17.3656 12.8137 17.4479 13.0209 17.4479H14.5834C14.7906 17.4479 14.9893 17.3656 15.1358 17.2191C15.2823 17.0726 15.3646 16.8739 15.3646 16.6667C15.3646 16.4595 15.2823 16.2607 15.1358 16.1142C14.9893 15.9677 14.7906 15.8854 14.5834 15.8854H13.0209Z" fill="#1657FF"/>
</svg>
